<?xml version="1.0" encoding="utf-8"?>
<!-- Generator: Adobe Illustrator 18.0.0, SVG Export Plug-In . SVG Version: 6.00 Build 0)  -->
<!DOCTYPE svg PUBLIC "-//W3C//DTD SVG 1.1//EN" "http://www.w3.org/Graphics/SVG/1.1/DTD/svg11.dtd">
<svg version="1.1" id="Слой_1" xmlns="http://www.w3.org/2000/svg" xmlns:xlink="http://www.w3.org/1999/xlink" x="0px" y="0px"
	 viewBox="0 0 40 40" style="enable-background:new 0 0 40 40;" xml:space="preserve">
<path d="M27.9,17.8c0.9,0,1.8,0,2.7,0c0.2,0,0.2,0,0.2,0.2c0,0.9,0,1.8,0,2.8c0,0.5-0.1,1.1-0.2,1.6c-0.1,0.6-0.3,1.2-0.5,1.7
	c-0.3,0.9-0.8,1.7-1.3,2.5c-0.5,0.8-1.1,1.4-1.8,2.1c-0.7,0.6-1.4,1.1-2.3,1.5c-0.6,0.3-1.2,0.5-1.8,0.7c-0.2,0.1-0.4,0.1-0.7,0.2
	c-0.2,0-0.2,0.1-0.2,0.2c0,1.1,0,2.2,0,3.3c0,0.7,0,1.4,0,2.1c0,0.1,0,0.2,0.2,0.2c1.3,0,2.6,0,3.9,0c0.6,0,1.2,0.1,1.7,0.5
	c0.5,0.4,0.9,0.9,1.1,1.5c0.1,0.3,0.1,0.5,0.1,0.8c0,0.1,0,0.1-0.1,0.1c0,0-0.1,0-0.1,0c-6,0-11.9,0-17.9,0c-0.2,0-0.3,0-0.2-0.2
	c0.1-0.5,0.2-1,0.6-1.5c0.3-0.5,0.8-0.8,1.3-1c0.3-0.1,0.6-0.2,0.9-0.2c1.3,0,2.7,0,4,0c0.2,0,0.2,0,0.2-0.2c0-1.8,0-3.6,0-5.3
	c0-0.2,0-0.2-0.2-0.3c-0.5-0.1-1-0.3-1.5-0.5c-0.9-0.3-1.7-0.8-2.4-1.3c-0.9-0.6-1.6-1.3-2.2-2.2c-0.5-0.7-1-1.4-1.3-2.3
	c-0.2-0.6-0.4-1.1-0.6-1.7c-0.1-0.3-0.1-0.7-0.2-1c-0.3-1.4-0.1-2.7-0.2-4.1c0-0.2,0.1-0.2,0.2-0.2c0.9,0,1.8,0,2.7,0
	c0.1,0,0.2,0,0.3,0c5.1,0,10.2,0,15.3,0C27.8,17.8,27.9,17.8,27.9,17.8z M29.3,20.4C29.3,20.4,29.3,20.4,29.3,20.4
	c0-0.3,0-0.6,0-0.9c0-0.1,0-0.1-0.1-0.1c-0.4,0-0.8,0-1.1,0c-0.1,0-0.1,0-0.1,0.1c0,0.6,0,1.1-0.1,1.7c0,0.4-0.1,0.7-0.2,1
	c-0.1,0.5-0.3,1-0.5,1.5c-0.3,0.7-0.7,1.3-1.1,1.8c-0.5,0.6-1,1.1-1.6,1.5c-0.7,0.5-1.5,0.9-2.3,1.1c-0.5,0.1-1.1,0.2-1.6,0.3
	c-0.5,0-0.9,0-1.4,0c-0.6-0.1-1.2-0.2-1.8-0.4c-0.7-0.2-1.3-0.6-1.9-1c-0.7-0.5-1.4-1.1-1.9-1.9c-0.5-0.6-0.8-1.3-1.1-2.1
	c-0.2-0.5-0.3-1-0.4-1.5c-0.1-0.5-0.1-1-0.1-1.6c0-0.2,0-0.3,0-0.5c0-0.1,0-0.1-0.1-0.1c-0.4,0-0.7,0-1.1,0c-0.2,0-0.2,0-0.2,0.2
	c0,0.7,0,1.4,0.1,2.1c0.1,0.4,0.1,0.7,0.2,1.1c0.2,0.6,0.4,1.1,0.6,1.7c0.4,0.9,0.9,1.6,1.6,2.4c0.7,0.7,1.5,1.4,2.3,1.9
	c0.8,0.4,1.6,0.8,2.5,1c0.5,0.1,1.1,0.2,1.6,0.2c0.8,0,1.6,0,2.5-0.2c0.5-0.1,1-0.2,1.4-0.4c0.9-0.4,1.8-0.9,2.6-1.6
	c0.9-0.8,1.7-1.8,2.3-2.9c0.2-0.4,0.4-0.7,0.5-1.1c0.1-0.3,0.2-0.7,0.3-1c0.1-0.5,0.2-0.9,0.2-1.4C29.4,20.8,29.3,20.6,29.3,20.4z"
	/>
<path d="M27.9,7.1c0-0.2,0-0.3-0.1-0.5c-0.1-0.4-0.2-0.8-0.4-1.1H12.6c-0.1,0.3-0.2,0.6-0.3,1c-0.1,0.4-0.2,0.9-0.2,1.3h15.8
	C27.9,7.6,27.9,7.4,27.9,7.1z"/>
<path d="M26.1,3.2c-0.7-0.8-1.5-1.5-2.4-2c-0.5-0.3-1-0.5-1.5-0.6c-0.5-0.1-1-0.2-1.5-0.3c-0.7-0.1-1.5,0-2.2,0.1
	c-0.5,0.1-0.9,0.2-1.4,0.4C16.4,1.1,15.7,1.5,15,2c-0.6,0.5-1.1,1.1-1.6,1.7h13.1C26.4,3.6,26.3,3.4,26.1,3.2z"/>
<path d="M12.1,16.1h15.9c0-0.8,0-1.6,0-2.4H12.1C12.1,14.5,12.1,15.3,12.1,16.1z"/>
<path d="M12.1,9.5c0,0.8,0,1.7,0,2.5h15.9c0-0.8,0-1.7,0-2.5H12.1z"/>
<path style="fill:#FFFFFF;" d="M12.1,17.8c0.1,0,0.2,0,0.3,0c5.1,0,10.2,0,15.3,0c0.1,0,0.2,0,0.3,0c0-0.6,0-1.1,0-1.7H12.1
	C12.1,16.7,12.1,17.2,12.1,17.8z"/>
<path style="fill:#FFFFFF;" d="M12.1,13.7h15.9c0-0.6,0-1.1,0-1.7H12.1C12.1,12.6,12.1,13.1,12.1,13.7z"/>
<path style="fill:#FFFFFF;" d="M27.9,8.4c0-0.2,0-0.4,0-0.6H12.1c0,0.1,0,0.2,0,0.3c0,0.5,0,1,0,1.4h15.9C27.9,9.2,27.9,8.8,27.9,8.4z"/>
<path style="fill:#FFFFFF;" d="M27.2,5c-0.2-0.4-0.4-0.8-0.7-1.2H13.5c-0.1,0.1-0.2,0.2-0.2,0.3C13,4.6,12.8,5,12.6,5.5h14.8
	C27.4,5.3,27.3,5.2,27.2,5z"/>
</svg>
